<svg id="Layer_1" data-name="Layer 1" xmlns="http://www.w3.org/2000/svg" viewBox="0 0 85.65 85.65"><defs><style>.cls-1{fill:#4096D6;}</style></defs><title>Iconos_pantalla_apis</title><path class="cls-1" d="M78.79,59a3.82,3.82,0,0,0-5.27,1.44A33.86,33.86,0,0,1,61,73.12a34.67,34.67,0,0,1-34.52,0A34.83,34.83,0,0,1,13.78,60.46a34.67,34.67,0,0,1,0-34.52h0A34.83,34.83,0,0,1,26.43,13.28,35.2,35.2,0,0,1,39.86,8.86V43.67a.72.72,0,0,0,.1.38c0,.1.1.19.1.38s.1.19.1.38.1.19.19.29.1.19.19.29.19.19.19.29L41,46c.1.1.19.19.29.19a1.32,1.32,0,0,0,.38.29l.1.1,20.81,12a3.37,3.37,0,0,0,1.92.48,3.84,3.84,0,0,0,1.92-7.19L47.53,41V4.84A3.85,3.85,0,0,0,43.7,1,41.92,41.92,0,0,0,22.6,6.66,42.56,42.56,0,0,0,7.16,22.1h0a42.16,42.16,0,0,0,0,42.2A42.56,42.56,0,0,0,22.6,79.73a42.16,42.16,0,0,0,42.2,0A42.56,42.56,0,0,0,80.23,64.29,3.82,3.82,0,0,0,78.79,59ZM43.7,44.63a1.44,1.44,0,1,1,1.44-1.44A1.47,1.47,0,0,1,43.7,44.63Z"/><path class="cls-1" d="M61.44,12.51a2.71,2.71,0,0,0,1.44.38,2.86,2.86,0,0,0,2.49-1.44,2.94,2.94,0,0,0-1.05-3.93,2.71,2.71,0,0,0-1.44-.38h0a2.86,2.86,0,0,0-2.49,1.44A3,3,0,0,0,61.44,12.51Z"/><path class="cls-1" d="M76.88,26.89a2.89,2.89,0,0,0,2.78-2.11,2.94,2.94,0,0,0-.29-2.21,2.86,2.86,0,0,0-2.49-1.44h0a2.71,2.71,0,0,0-1.44.38,2.94,2.94,0,0,0-1.05,3.93A3.11,3.11,0,0,0,76.88,26.89Z"/><circle class="cls-1" cx="82.05" cy="43.2" r="2.88"/></svg>