<svg id="Layer_1" data-name="Layer 1" xmlns="http://www.w3.org/2000/svg" viewBox="0 0 85.65 85.65"><defs><style>.cls-1{fill:#4096D6;}</style></defs><title>Iconos_pantalla_apis</title><path class="cls-1" d="M43,1A42,42,0,1,0,85,43,42,42,0,0,0,43,1Zm0,79.3A37.29,37.29,0,0,1,22.71,11.72c.08,1.39,2.06,2.23,1.51,3.88-.3.92-1.12,1.57-1.45,2.49s-.22,1.87-.61,2.74c-.65,1.44-2.13,2.21-3,3.5a7.27,7.27,0,0,0-1,4.18c0,1.76,1.21,3.14,1.79,4.73a28.05,28.05,0,0,1,1.34,5.85c.57,4.26,6.25,4.55,8.93,6.74,1.2,1,1.8,2.51,3,3.5.62.52,2.32,1.18,2.27-.28a6.06,6.06,0,0,0-1.22-2.66c-.38-.66-.55-1.55-1.28-1.9-.48-.24-1.11-.18-1.56-.47-.81-.52-.34-1.48-.61-2.22-.7-2-3.69.91-4.81-1.3-1.27-2.51.69-5.24,3.14-5.88a5.79,5.79,0,0,1,3.71.4c.71.29,1.74,1.12,2.52,1.06,1.05-.08,1-2.38,1.84-3a11.84,11.84,0,0,0,2.09-1.65c1.46-1.68,2.37-3.28,4.59-4.08,1.61-.58,4.34-1.91,5.23-3.45s-1.43-3.55-2.42-4.31c-.8-.62-2-1.06-2.51-2-.59-1.09.15-2.18,1-2.92,1.16-1.06,2.08.26,2.77,1.13.58.71,2.83,2.42,3.75,1.35.77-.89-.37-2.62,0-3.71s.87-1.84,0-2.74l-.1-.09c-.54-.5-1.28-.72-1.83-1.21a12.52,12.52,0,0,1-2.55-3.45A37,37,0,0,1,56.4,8.19a1.44,1.44,0,0,0,.07.64,2.49,2.49,0,0,0,1,1.08A19.68,19.68,0,0,1,60,12.15c1.56,1.55,4.29,1.59,5.22,3.83.43,1,.2,2.33,1,3.23.61.73,1.52,1.08,1.41,2.18-.09.85-.37,1.84.88,1.79a1.6,1.6,0,0,0,1.28-.64c.36-.58,0-1.32,0-1.95-.06-2,2.09.11,3.07-.08a37.37,37.37,0,0,1,2.59,3.9,1,1,0,0,1-.61.14c-.46-.06-.81-.59-1.19-.81-1.16-.68-1.46.51-1.85,1.45a15.26,15.26,0,0,0-1.23,2.86c-.23,1.33.38,2.79.45,4.13a29,29,0,0,0,.25,4.33,23.61,23.61,0,0,0,2.19,5.93c.49,1,1.28,3.81,2.79,3.49.85-.18,1.19-1.27,1.81-1.76.84-.67,1.54-.14,2.33.15A37.34,37.34,0,0,1,43,80.3Z"/><path class="cls-1" d="M62.44,55.78c-2.89-1.06-5.72-.22-8.25-2.38C51.3,50.94,48.87,49,45.09,48c-2.7-.68-5.24-1.13-7.17,1.24a12.3,12.3,0,0,0-2.83,8.34c.3,3.27,3.19,5.87,5.63,7.77A3.43,3.43,0,0,1,42,68.51c-.23,4.13-5,8.11-1.78,9.94,1.09.63,2.54-.88,3.26-1.52,3-2.65,6.89-3.74,10-6.12,1.13-.86,2-2,3.06-2.91s2.22-1.2,3.18-2c1.18-1,1.18-2.16,1.73-3.5a6.62,6.62,0,0,1,1.39-1.81C64.22,59,64.88,56.67,62.44,55.78Z"/></svg>